<svg width="123" height="23" viewBox="0 0 123 23" fill="none" xmlns="http://www.w3.org/2000/svg">
  <path d="M16.9063 8.86933H12.6961C12.7188 8.42615 12.6762 8.03126 12.5683 7.68467C12.4603 7.3324 12.2899 7.03126 12.0569 6.78126C11.824 6.52558 11.5342 6.3324 11.1876 6.20172C10.841 6.07103 10.4376 6.00569 9.97736 6.00569C9.09668 6.00569 8.29839 6.22444 7.58248 6.66194C6.86657 7.09944 6.26714 7.73013 5.78418 8.55399C5.30123 9.37785 4.96316 10.3665 4.76998 11.5199C4.59384 12.6335 4.59668 13.5625 4.7785 14.3068C4.966 15.0511 5.31259 15.6108 5.81827 15.9858C6.32396 16.3551 6.966 16.5398 7.74441 16.5398C8.25009 16.5398 8.71884 16.4801 9.15066 16.3608C9.58816 16.2358 9.98305 16.0568 10.3353 15.8239C10.6876 15.5909 10.9916 15.3097 11.2473 14.9801C11.5086 14.6449 11.7103 14.2727 11.8524 13.8636H16.0967C15.8865 14.6307 15.5399 15.3949 15.0569 16.1563C14.5796 16.9119 13.9774 17.5966 13.2501 18.2102C12.5228 18.8239 11.6791 19.3154 10.7188 19.6847C9.75861 20.054 8.69043 20.2386 7.5143 20.2386C5.90634 20.2386 4.51998 19.8779 3.35521 19.1563C2.19611 18.4347 1.35805 17.3892 0.841 16.0199C0.329637 14.6449 0.233046 12.9801 0.551228 11.0256C0.863728 9.13353 1.4802 7.53978 2.40066 6.24433C3.3268 4.94888 4.4518 3.96876 5.77566 3.30399C7.10521 2.63922 8.52282 2.30683 10.0285 2.30683C11.1194 2.30683 12.0995 2.45456 12.9688 2.75001C13.8438 3.03978 14.5853 3.46592 15.1933 4.02842C15.8012 4.58524 16.2529 5.2699 16.5484 6.0824C16.8495 6.8949 16.9688 7.82388 16.9063 8.86933Z" fill="black"/>
  <path d="M21.1443 20.2216C20.3147 20.2216 19.5988 20.0824 18.9965 19.804C18.3999 19.5199 17.9624 19.0909 17.684 18.5171C17.4113 17.9432 17.346 17.2273 17.488 16.3693C17.613 15.6421 17.8431 15.0313 18.1784 14.5369C18.5193 14.0369 18.9369 13.6307 19.4312 13.3182C19.9312 13.0057 20.488 12.7671 21.1017 12.6023C21.7153 12.4375 22.3573 12.3267 23.0278 12.2699C23.7778 12.2017 24.3857 12.1279 24.8517 12.0483C25.3232 11.9688 25.6755 11.858 25.9085 11.7159C26.1414 11.5682 26.2835 11.3636 26.3346 11.1023V11.0597C26.4028 10.6222 26.309 10.2841 26.0534 10.0455C25.7977 9.80683 25.4142 9.68751 24.9028 9.68751C24.3573 9.68751 23.8914 9.80683 23.5051 10.0455C23.1187 10.2841 22.8488 10.6136 22.6954 11.0341L18.8772 10.8977C19.1159 10.1023 19.5249 9.39206 20.1045 8.76706C20.684 8.13638 21.4198 7.64206 22.3119 7.2841C23.2096 6.92047 24.2465 6.73865 25.4227 6.73865C26.2522 6.73865 27.0022 6.83808 27.6727 7.03694C28.3431 7.23013 28.9085 7.51422 29.3687 7.88922C29.8346 8.25853 30.167 8.71308 30.3659 9.25285C30.5647 9.79263 30.6073 10.4091 30.4937 11.1023L29.0022 20H25.0818L25.3886 18.1761H25.2863C24.9795 18.6193 24.6187 18.9943 24.2039 19.3011C23.7948 19.608 23.3346 19.8381 22.8232 19.9915C22.3119 20.1449 21.7522 20.2216 21.1443 20.2216ZM22.9 17.4943C23.3375 17.4943 23.7522 17.4034 24.1443 17.2216C24.5363 17.0398 24.8659 16.7898 25.1329 16.4716C25.4056 16.1477 25.5789 15.7727 25.6528 15.3466L25.8488 14.1023C25.7295 14.1648 25.5789 14.2216 25.3971 14.2727C25.2153 14.3239 25.0221 14.3722 24.8176 14.4176C24.613 14.4574 24.4028 14.4972 24.1869 14.5369C23.9767 14.571 23.775 14.6023 23.5818 14.6307C23.1727 14.6932 22.8176 14.7898 22.5164 14.9205C22.2153 15.0511 21.9738 15.2216 21.792 15.4318C21.6159 15.6364 21.5079 15.8807 21.4681 16.1648C21.3999 16.5909 21.4994 16.9205 21.7664 17.1534C22.0335 17.3807 22.4113 17.4943 22.9 17.4943Z" fill="black"/>
  <path d="M37.2693 22.1818L40.8829 0.363647H42.2806L38.667 22.1818H37.2693ZM42.9965 7.81251C43.042 7.17047 42.8715 6.67331 42.4852 6.32104C42.1045 5.96876 41.5022 5.79263 40.6784 5.79263C40.1329 5.79263 39.667 5.86365 39.2806 6.00569C38.8943 6.14206 38.5903 6.33524 38.3687 6.58524C38.1471 6.82956 38.0079 7.11365 37.9511 7.43751C37.8999 7.69319 37.9142 7.92047 37.9937 8.11933C38.0732 8.31819 38.2124 8.49433 38.4113 8.64774C38.6159 8.80115 38.8687 8.93467 39.1698 9.04831C39.4767 9.16194 39.8204 9.26138 40.2011 9.3466L41.6329 9.68751C42.4624 9.87501 43.1812 10.125 43.7892 10.4375C44.4028 10.7443 44.9 11.1165 45.2806 11.554C45.6613 11.9858 45.9227 12.483 46.0647 13.0455C46.2068 13.608 46.2181 14.2386 46.0988 14.9375C45.917 16.0398 45.4823 16.9858 44.7948 17.7756C44.113 18.5654 43.221 19.1705 42.1187 19.5909C41.0221 20.0114 39.7465 20.2216 38.292 20.2216C36.8375 20.2216 35.6017 20.0029 34.5846 19.5654C33.5732 19.1222 32.8403 18.4546 32.3857 17.5625C31.9312 16.6705 31.809 15.5455 32.0193 14.1875H36.0505C35.988 14.75 36.059 15.2188 36.2636 15.5938C36.4738 15.9688 36.7977 16.2529 37.2352 16.446C37.6727 16.6392 38.2011 16.7358 38.8204 16.7358C39.3886 16.7358 39.8857 16.6591 40.3119 16.5057C40.7437 16.3523 41.0875 16.1392 41.3431 15.8665C41.6045 15.5938 41.7636 15.2813 41.8204 14.929C41.8772 14.6051 41.8232 14.3239 41.6585 14.0852C41.4994 13.8466 41.2267 13.6392 40.8403 13.4631C40.4596 13.2869 39.9596 13.1279 39.3403 12.9858L37.5931 12.5597C36.15 12.2074 35.0562 11.6449 34.3119 10.8722C33.5732 10.0994 33.3119 9.05115 33.5278 7.72729C33.7096 6.64206 34.1585 5.69319 34.8744 4.88069C35.596 4.06819 36.5079 3.43751 37.6102 2.98865C38.7181 2.5341 39.9369 2.30683 41.2664 2.30683C42.6187 2.30683 43.7551 2.53694 44.6755 2.99717C45.6017 3.45172 46.2693 4.09376 46.6784 4.92331C47.0931 5.74717 47.2124 6.71024 47.0363 7.81251H42.9965Z" fill="black"/>
  <path d="M52.8318 12.5341L51.5874 20H47.4198L50.3176 2.54547H54.3488L53.2409 9.31251H53.3857C53.8062 8.50569 54.3914 7.87501 55.1414 7.42047C55.8914 6.96592 56.7607 6.73865 57.7494 6.73865C58.6585 6.73865 59.4198 6.94319 60.0335 7.35229C60.6471 7.75569 61.0818 8.32672 61.3374 9.06535C61.5931 9.80399 61.6386 10.6676 61.4738 11.6563L60.0761 20H55.9085L57.1698 12.4744C57.2835 11.7472 57.1897 11.179 56.8886 10.7699C56.5874 10.3608 56.1045 10.1563 55.4397 10.1563C55.0022 10.1563 54.5988 10.2529 54.2295 10.446C53.8659 10.6335 53.5619 10.9034 53.3176 11.2557C53.0732 11.608 52.9113 12.0341 52.8318 12.5341Z" fill="black"/>
  <path d="M62.6521 20L65.5498 2.54547H69.7174L68.635 9.15058H68.7203C68.9475 8.75285 69.2487 8.36933 69.6237 8.00001C70.0044 7.63069 70.4617 7.32956 70.9958 7.0966C71.5299 6.85797 72.1407 6.73865 72.8282 6.73865C73.7373 6.73865 74.547 6.97728 75.2572 7.45456C75.9674 7.93183 76.4845 8.66763 76.8083 9.66194C77.1322 10.6563 77.1663 11.9233 76.9106 13.4631C76.6663 14.946 76.2259 16.1875 75.5896 17.1875C74.9532 18.1875 74.1947 18.9375 73.314 19.4375C72.439 19.9375 71.5186 20.1875 70.5527 20.1875C69.8936 20.1875 69.3396 20.0796 68.8907 19.8636C68.4475 19.6477 68.0924 19.3636 67.8254 19.0114C67.564 18.6591 67.3822 18.2813 67.2799 17.8779H67.118L66.7771 20H62.6521ZM67.8254 13.4546C67.7117 14.1591 67.7061 14.7727 67.8083 15.2955C67.9163 15.8182 68.1237 16.2244 68.4305 16.5142C68.743 16.7983 69.1549 16.9404 69.6663 16.9404C70.1776 16.9404 70.635 16.7983 71.0384 16.5142C71.4419 16.2244 71.7799 15.8182 72.0527 15.2955C72.3254 14.7727 72.5186 14.1591 72.6322 13.4546C72.7458 12.75 72.7515 12.1392 72.6492 11.6222C72.5526 11.1051 72.3509 10.7046 72.0441 10.4205C71.7373 10.1364 71.3254 9.99433 70.8083 9.99433C70.297 9.99433 69.8367 10.1335 69.4277 10.4119C69.0242 10.6904 68.6833 11.0881 68.4049 11.6051C68.1322 12.1222 67.939 12.7386 67.8254 13.4546Z" fill="black"/>
  <path d="M81.6599 20.2216C80.8303 20.2216 80.1144 20.0824 79.5122 19.804C78.9156 19.5199 78.4781 19.0909 78.1997 18.5171C77.9269 17.9432 77.8616 17.2273 78.0036 16.3693C78.1286 15.6421 78.3588 15.0313 78.694 14.5369C79.0349 14.0369 79.4525 13.6307 79.9468 13.3182C80.4468 13.0057 81.0036 12.7671 81.6173 12.6023C82.2309 12.4375 82.873 12.3267 83.5434 12.2699C84.2934 12.2017 84.9014 12.1279 85.3673 12.0483C85.8389 11.9688 86.1911 11.858 86.4241 11.7159C86.657 11.5682 86.7991 11.3636 86.8502 11.1023V11.0597C86.9184 10.6222 86.8247 10.2841 86.569 10.0455C86.3133 9.80683 85.9298 9.68751 85.4184 9.68751C84.873 9.68751 84.4071 9.80683 84.0207 10.0455C83.6343 10.2841 83.3644 10.6136 83.211 11.0341L79.3928 10.8977C79.6315 10.1023 80.0406 9.39206 80.6201 8.76706C81.1997 8.13638 81.9355 7.64206 82.8275 7.2841C83.7252 6.92047 84.7622 6.73865 85.9383 6.73865C86.7678 6.73865 87.5178 6.83808 88.1883 7.03694C88.8588 7.23013 89.4241 7.51422 89.8843 7.88922C90.3502 8.25853 90.6826 8.71308 90.8815 9.25285C91.0803 9.79263 91.123 10.4091 91.0093 11.1023L89.5178 20H85.5974L85.9042 18.1761H85.8019C85.4951 18.6193 85.1343 18.9943 84.7196 19.3011C84.3105 19.608 83.8502 19.8381 83.3389 19.9915C82.8275 20.1449 82.2678 20.2216 81.6599 20.2216ZM83.4156 17.4943C83.8531 17.4943 84.2678 17.4034 84.6599 17.2216C85.0519 17.0398 85.3815 16.7898 85.6485 16.4716C85.9213 16.1477 86.0946 15.7727 86.1684 15.3466L86.3644 14.1023C86.2451 14.1648 86.0946 14.2216 85.9127 14.2727C85.7309 14.3239 85.5377 14.3722 85.3332 14.4176C85.1286 14.4574 84.9184 14.4972 84.7025 14.5369C84.4923 14.571 84.2906 14.6023 84.0974 14.6307C83.6883 14.6932 83.3332 14.7898 83.0321 14.9205C82.7309 15.0511 82.4894 15.2216 82.3076 15.4318C82.1315 15.6364 82.0235 15.8807 81.9838 16.1648C81.9156 16.5909 82.015 16.9205 82.2821 17.1534C82.5491 17.3807 82.9269 17.4943 83.4156 17.4943Z" fill="black"/>
  <path d="M97.5036 12.5341L96.2593 20H92.0917L94.2735 6.9091H98.2366L97.8446 9.31251H97.9894C98.3985 8.51138 98.9923 7.88353 99.7707 7.42899C100.549 6.96876 101.424 6.73865 102.396 6.73865C103.31 6.73865 104.075 6.94319 104.688 7.35229C105.302 7.76138 105.737 8.33524 105.992 9.07388C106.248 9.80683 106.291 10.6676 106.12 11.6563L104.722 20H100.555L101.808 12.4744C101.933 11.7529 101.845 11.1875 101.543 10.7784C101.248 10.3636 100.765 10.1563 100.095 10.1563C99.6571 10.1563 99.2565 10.2529 98.8928 10.446C98.5349 10.6335 98.2338 10.9034 97.9894 11.2557C97.7508 11.608 97.5889 12.0341 97.5036 12.5341Z" fill="black"/>
  <path d="M111.598 16.5654L112.442 11.5966H113.013L117.496 6.9091H122.217L115.638 13.625H114.538L111.598 16.5654ZM107.277 20L110.175 2.54547H114.342L111.445 20H107.277ZM115.408 20L112.885 14.5625L116.132 11.6051L120.223 20H115.408Z" fill="black"/>
  </svg>
  