<svg width="38" height="38" viewBox="0 0 48 48" fill="none" xmlns="http://www.w3.org/2000/svg">
  <circle cx="24" cy="24" r="23.5" stroke="black"/>
  <path d="M23.9205 22.6015C25.5034 22.6015 27.0214 21.9725 28.1405 20.8533C29.2596 19.7339 29.8882 18.2157 29.8877 16.6328C29.8875 15.0501 29.2584 13.5322 28.1388 12.4133C27.0193 11.2942 25.501 10.666 23.9181 10.6667C22.3354 10.6671 20.8176 11.2965 19.6988 12.4164C18.5802 13.5361 17.9522 15.0546 17.9531 16.6373C17.9557 18.2188 18.5853 19.7349 19.704 20.8528C20.8226 21.971 22.3389 22.5997 23.9204 22.6016L23.9205 22.6015ZM23.9205 12.0151V12.0149C25.1465 12.0149 26.3223 12.5019 27.189 13.3689C28.056 14.2359 28.5431 15.4117 28.5431 16.6375C28.5431 17.8635 28.056 19.0393 27.189 19.9063C26.3223 20.7732 25.1465 21.2601 23.9205 21.2601C22.6944 21.2601 21.5186 20.7733 20.6519 19.9063C19.785 19.0393 19.2978 17.8635 19.2978 16.6375C19.2988 15.4119 19.7861 14.2366 20.6528 13.3698C21.5195 12.503 22.6947 12.0158 23.9205 12.0149V12.0151Z" fill="black"/>
  <path d="M16.3533 37.3333H31.4819C32.106 37.3333 32.7046 37.0854 33.146 36.6441C33.5873 36.2028 33.8352 35.6041 33.8352 34.98V34.3647C33.7679 31.7793 32.6933 29.3221 30.8407 27.5172C28.9881 25.7123 26.504 24.7021 23.9176 24.7021C21.331 24.7021 18.8468 25.7121 16.9944 27.5172C15.1421 29.3222 14.0675 31.7794 14 34.3647V34.98C14 35.6041 14.2481 36.2028 14.6894 36.6441C15.1308 37.0855 15.7292 37.3333 16.3535 37.3333H16.3533ZM15.3446 34.3647C15.4288 31.359 17.081 28.6169 19.699 27.1378C22.3168 25.6587 25.5181 25.6587 28.1362 27.1378C30.754 28.6168 32.4061 31.3589 32.4903 34.3647V34.98C32.4903 35.2474 32.3841 35.5039 32.1951 35.6932C32.0058 35.8822 31.7493 35.9887 31.4819 35.9887H16.3533C16.0857 35.9887 15.8292 35.8822 15.6401 35.6932C15.4509 35.5039 15.3447 35.2474 15.3447 34.98L15.3446 34.3647Z" fill="black"/>
</svg>
